<svg width="134" height="24" viewBox="0 0 134 24" fill="none" xmlns="http://www.w3.org/2000/svg">
<g id="Frame 1">
<g id="Group 48">
<g id="Group 49">
<path id="Vector" d="M33.8255 15.0601C33.8365 16.2723 33.6051 17.4745 33.1452 18.5961C32.7168 19.6502 32.0885 20.6115 31.2949 21.4269C30.511 22.2272 29.5787 22.8671 28.55 23.3107C27.485 23.7654 26.3389 23.9999 25.1809 23.9999C24.0228 23.9999 22.8768 23.7654 21.8117 23.3107C19.7142 22.4078 18.0574 20.7143 17.2006 18.5975C16.7426 17.475 16.5128 16.2725 16.5246 15.0601C16.513 13.8356 16.7443 12.6209 17.205 11.4863C17.6319 10.4278 18.2619 9.4631 19.0596 8.64674C19.8469 7.84936 20.7816 7.21254 21.8117 6.77168C22.8733 6.31575 24.0176 6.08411 25.1729 6.0913C26.3296 6.08287 27.4768 6.30063 28.55 6.73235C29.5792 7.14603 30.5131 7.76521 31.2949 8.55205C32.093 9.36381 32.7219 10.326 33.1452 11.3828C33.6119 12.5518 33.8431 13.8015 33.8255 15.0601ZM29.4752 15.0601C29.4853 14.4128 29.37 13.7696 29.1357 13.1661C28.9241 12.6254 28.61 12.1307 28.2106 11.7092C27.8235 11.3087 27.3577 10.9927 26.8425 10.7811C25.7717 10.3498 24.5755 10.3498 23.5047 10.7811C22.9904 10.9931 22.5267 11.3114 22.1439 11.715C21.7495 12.1373 21.4408 12.6321 21.2348 13.172C21.0058 13.7767 20.8931 14.4193 20.9026 15.066C20.8968 15.6881 21.0095 16.3057 21.2348 16.8857C21.4428 17.4245 21.7514 17.9189 22.1439 18.3426C22.5289 18.7536 22.9914 19.0843 23.5047 19.3158C24.029 19.5518 24.5979 19.672 25.1729 19.6684C25.7462 19.6719 26.3142 19.5589 26.8425 19.3362C27.3565 19.1197 27.8217 18.8021 28.2106 18.4023C28.6125 17.9828 28.927 17.4876 29.1357 16.9454C29.3685 16.3445 29.4838 15.7045 29.4752 15.0601Z" fill="#767676"/>
<path id="Vector_2" d="M44.2449 23.6823C43.2339 23.6888 42.2325 23.4865 41.3034 23.0879C39.4843 22.3139 38.0358 20.8654 37.2619 19.0464C36.8642 18.117 36.6623 17.1157 36.6689 16.1048V11.0726H34.5651V6.77178H36.6689V0H40.9712V6.77178H47.5201V11.0726H40.9712V16.1034C40.968 16.5407 41.0542 16.974 41.2247 17.3767C41.3872 17.7637 41.6232 18.1155 41.9197 18.4126C42.22 18.7115 42.5745 18.9503 42.9643 19.1163C43.3684 19.2914 43.8046 19.3802 44.2449 19.3771H47.5201V23.6808L44.2449 23.6823Z" fill="#767676"/>
<path id="Vector_3" d="M58.6277 23.6823C57.6167 23.6891 56.6152 23.4867 55.6862 23.0879C53.8633 22.3161 52.4108 20.8673 51.6345 19.0464C51.2396 18.1165 51.0412 17.115 51.0517 16.1048V11.0726H48.9421V6.77178H51.0517V0H55.3496V6.77178H61.8985V11.0726H55.3496V16.1034C55.3464 16.5321 55.4284 16.9572 55.591 17.3539C55.7536 17.7505 55.9934 18.1109 56.2966 18.4141C56.5967 18.7132 56.9513 18.9521 57.3412 19.1178C57.7472 19.2931 58.1855 19.3815 58.6277 19.3771H61.9029V23.6808L58.6277 23.6823Z" fill="#767676"/>
<path id="Vector_4" d="M80.5462 15.0601C80.5564 16.2723 80.3251 17.4743 79.8658 18.5961C79.4369 19.6499 78.8086 20.6111 78.0155 21.4269C77.2314 22.2269 76.2991 22.8667 75.2706 23.3107C74.2062 23.7648 73.0609 23.9989 71.9037 23.9989C70.7464 23.9989 69.6012 23.7648 68.5367 23.3107C66.4392 22.4078 64.7823 20.7143 63.9256 18.5975C63.4663 17.4757 63.235 16.2737 63.2452 15.0616C63.2336 13.8371 63.4649 12.6224 63.9256 11.4877C64.3465 10.4371 64.9704 9.47983 65.7616 8.6706C66.5528 7.86136 67.4959 7.21609 68.5367 6.77168C69.5951 6.31712 70.7358 6.08551 71.8877 6.0913C73.0444 6.08287 74.1916 6.30063 75.2648 6.73235C76.2958 7.1457 77.2318 7.76487 78.0155 8.55205C78.813 9.3643 79.4419 10.3264 79.8658 11.3828C80.3319 12.552 80.5631 13.8016 80.5462 15.0601ZM76.1958 15.0601C76.2052 14.4129 76.0899 13.7698 75.8563 13.1661C75.6442 12.6257 75.3301 12.131 74.9312 11.7092C74.5441 11.3087 74.0783 10.9927 73.5631 10.7811C72.4923 10.3498 71.2961 10.3498 70.2253 10.7811C69.7108 10.9927 69.247 11.311 68.8646 11.715C68.4701 12.1373 68.1614 12.6321 67.9554 13.172C67.7264 13.7767 67.6137 14.4193 67.6233 15.066C67.6177 15.6861 67.7299 16.3016 67.954 16.8798C68.162 17.4187 68.4705 17.9131 68.8631 18.3367C69.2478 18.7481 69.7103 19.0789 70.2239 19.31C70.7464 19.5473 71.3138 19.6696 71.8877 19.6684C72.461 19.6717 73.029 19.5587 73.5573 19.3362C74.0713 19.1197 74.5365 18.8021 74.9254 18.4023C75.3268 17.9824 75.6412 17.4873 75.8505 16.9454C76.0846 16.3447 76.2018 15.7048 76.1958 15.0601Z" fill="#767676"/>
<path id="Vector_5" d="M99.1601 15.0602C99.1762 16.3074 98.945 17.5453 98.4797 18.7025C98.0543 19.7565 97.4255 20.7164 96.6294 21.5275C95.8457 22.3128 94.9123 22.9326 93.8845 23.3501C92.8124 23.7863 91.6648 24.0066 90.5074 23.9985C89.3714 24.0068 88.2451 23.7886 87.1945 23.3566C86.1438 22.9245 85.1898 22.2874 84.3883 21.4823C83.5894 20.6722 82.9578 19.7128 82.5293 18.6588C82.066 17.5163 81.8347 16.293 81.8489 15.0602V0H86.1832V7.9111C86.4266 7.60613 86.7144 7.33945 87.037 7.11999C87.371 6.88965 87.7315 6.70035 88.1107 6.55616C88.4982 6.40809 88.898 6.2945 89.3054 6.2167C89.7013 6.13825 90.1038 6.09824 90.5074 6.09723C91.6668 6.08689 92.8161 6.31398 93.8845 6.7645C94.9153 7.1996 95.8486 7.83665 96.6294 8.6381C97.4211 9.45836 98.0491 10.4221 98.4797 11.4776C98.9419 12.6149 99.1732 13.8327 99.1601 15.0602ZM94.8097 15.0602C94.8144 14.4349 94.6981 13.8145 94.4673 13.2332C94.2539 12.6934 93.94 12.199 93.5422 11.7763C93.1546 11.3673 92.6896 11.0394 92.1741 10.8118C91.6483 10.5794 91.0793 10.4608 90.5045 10.4636C89.9258 10.4612 89.3546 10.5939 88.8363 10.8512C88.3223 11.1041 87.8603 11.451 87.4741 11.8739C87.0814 12.3041 86.7704 12.8023 86.5562 13.344C86.3364 13.8894 86.2236 14.4721 86.224 15.0602C86.2182 15.6824 86.3309 16.3 86.5562 16.8799C86.7651 17.4203 87.0768 17.9151 87.4741 18.3368C87.8625 18.747 88.3272 19.0776 88.8421 19.3101C89.3673 19.5444 89.9359 19.6655 90.511 19.6655C91.0861 19.6655 91.6548 19.5444 92.1799 19.3101C92.6946 19.0771 93.1591 18.7466 93.548 18.3368C93.9455 17.9139 94.2594 17.4196 94.4731 16.8799C94.7026 16.301 94.8169 15.6829 94.8097 15.0602Z" fill="#767676"/>
<path id="Vector_6" d="M133.791 23.6852H128.837L125.683 18.8234L122.495 23.6852H117.542L123.337 15.5483L117.544 7.72168H122.498L125.686 12.2731L128.84 7.72168H133.794L127.978 15.5483L133.791 23.6852Z" fill="#767676"/>
<path id="Vector_7" d="M112.178 12.0138V19.5097H104.682V12.0138H112.178ZM116.418 7.77417H100.444V23.7479H116.418V7.77417Z" fill="#767676"/>
<path id="Vector_8" d="M15.8721 23.602H0.205811V0.23877H4.70625L4.6844 19.1191H15.8721V23.602Z" fill="#767676"/>
</g>
</g>
</g>
</svg>
