<svg width="134" height="25" viewBox="0 0 134 25" fill="none" xmlns="http://www.w3.org/2000/svg">
<g id="Frame 1">
<g id="Group 48">
<g id="Group 49">
<path id="Vector" d="M33.6198 15.5601C33.6307 16.7723 33.3994 17.9745 32.9394 19.0961C32.511 20.1502 31.8827 21.1115 31.0891 21.9269C30.3052 22.7272 29.3729 23.3671 28.3442 23.8107C27.2792 24.2654 26.1332 24.4999 24.9751 24.4999C23.8171 24.4999 22.671 24.2654 21.606 23.8107C19.5085 22.9078 17.8516 21.2143 16.9948 19.0975C16.5368 17.975 16.307 16.7725 16.3188 15.5601C16.3072 14.3356 16.5385 13.1209 16.9992 11.9863C17.4261 10.9278 18.0562 9.9631 18.8538 9.14674C19.6411 8.34936 20.5758 7.71254 21.606 7.27168C22.6675 6.81575 23.8118 6.58411 24.9671 6.5913C26.1238 6.58287 27.2711 6.80063 28.3442 7.23235C29.3734 7.64603 30.3073 8.26521 31.0891 9.05205C31.8872 9.86381 32.5162 10.826 32.9394 11.8828C33.4061 13.0518 33.6373 14.3015 33.6198 15.5601ZM29.2694 15.5601C29.2795 14.9128 29.1642 14.2696 28.9299 13.6661C28.7184 13.1254 28.4042 12.6307 28.0048 12.2092C27.6177 11.8087 27.1519 11.4927 26.6367 11.2811C25.5659 10.8498 24.3697 10.8498 23.2989 11.2811C22.7846 11.4931 22.3209 11.8114 21.9381 12.215C21.5437 12.6373 21.235 13.1321 21.029 13.672C20.8 14.2767 20.6873 14.9193 20.6968 15.566C20.691 16.1881 20.8037 16.8057 21.029 17.3857C21.2371 17.9245 21.5456 18.4189 21.9381 18.8426C22.3231 19.2536 22.7856 19.5843 23.2989 19.8158C23.8232 20.0518 24.3922 20.172 24.9671 20.1684C25.5404 20.1719 26.1084 20.0589 26.6367 19.8362C27.1507 19.6197 27.6159 19.3021 28.0048 18.9023C28.4067 18.4828 28.7212 17.9876 28.9299 17.4454C29.1627 16.8445 29.278 16.2045 29.2694 15.5601Z" fill="#65CC35"/>
<path id="Vector_2" d="M44.0391 24.1823C43.0281 24.1888 42.0267 23.9865 41.0976 23.5879C39.2785 22.8139 37.83 21.3654 37.0561 19.5464C36.6584 18.617 36.4565 17.6157 36.4631 16.6048V11.5726H34.3593V7.27178H36.4631V0.5H40.7654V7.27178H47.3143V11.5726H40.7654V16.6034C40.7622 17.0407 40.8484 17.474 41.0189 17.8767C41.1814 18.2637 41.4174 18.6155 41.7139 18.9126C42.0142 19.2115 42.3687 19.4503 42.7585 19.6163C43.1626 19.7914 43.5987 19.8802 44.0391 19.8771H47.3143V24.1808L44.0391 24.1823Z" fill="#65CC35"/>
<path id="Vector_3" d="M58.4219 24.1823C57.4109 24.1891 56.4094 23.9867 55.4804 23.5879C53.6575 22.8161 52.205 21.3673 51.4287 19.5464C51.0338 18.6165 50.8354 17.615 50.8459 16.6048V11.5726H48.7363V7.27178H50.8459V0.5H55.1438V7.27178H61.6927V11.5726H55.1438V16.6034C55.1406 17.0321 55.2226 17.4572 55.3852 17.8539C55.5478 18.2505 55.7876 18.6109 56.0908 18.9141C56.3909 19.2132 56.7455 19.4521 57.1354 19.6178C57.5414 19.7931 57.9797 19.8815 58.4219 19.8771H61.6971V24.1808L58.4219 24.1823Z" fill="#65CC35"/>
<path id="Vector_4" d="M80.3403 15.5601C80.3505 16.7723 80.1192 17.9743 79.6599 19.0961C79.231 20.1499 78.6028 21.1111 77.8097 21.9269C77.0255 22.7269 76.0933 23.3667 75.0648 23.8107C74.0004 24.2648 72.8551 24.4989 71.6979 24.4989C70.5406 24.4989 69.3953 24.2648 68.3309 23.8107C66.2334 22.9078 64.5765 21.2143 63.7197 19.0975C63.2604 17.9757 63.0291 16.7737 63.0394 15.5616C63.0278 14.3371 63.2591 13.1224 63.7197 11.9877C64.1406 10.9371 64.7645 9.97983 65.5558 9.1706C66.347 8.36136 67.29 7.71609 68.3309 7.27168C69.3893 6.81712 70.53 6.58551 71.6818 6.5913C72.8386 6.58287 73.9858 6.80063 75.059 7.23235C76.09 7.6457 77.0259 8.26487 77.8097 9.05205C78.6072 9.8643 79.236 10.8264 79.6599 11.8828C80.126 13.052 80.3572 14.3016 80.3403 15.5601ZM75.99 15.5601C75.9994 14.9129 75.8841 14.2698 75.6505 13.6661C75.4384 13.1257 75.1243 12.631 74.7253 12.2092C74.3383 11.8087 73.8725 11.4927 73.3573 11.2811C72.2865 10.8498 71.0903 10.8498 70.0195 11.2811C69.505 11.4927 69.0412 11.811 68.6587 12.215C68.2643 12.6373 67.9555 13.1321 67.7496 13.672C67.5206 14.2767 67.4079 14.9193 67.4174 15.566C67.4118 16.1861 67.5241 16.8016 67.7481 17.3798C67.9562 17.9187 68.2647 18.4131 68.6573 18.8367C69.0419 19.2481 69.5045 19.5789 70.018 19.81C70.5405 20.0473 71.1079 20.1696 71.6818 20.1684C72.2551 20.1717 72.8231 20.0587 73.3515 19.8362C73.8654 19.6197 74.3307 19.3021 74.7195 18.9023C75.121 18.4824 75.4354 17.9873 75.6447 17.4454C75.8788 16.8447 75.996 16.2048 75.99 15.5601Z" fill="#65CC35"/>
<path id="Vector_5" d="M98.9542 15.5602C98.9704 16.8074 98.7392 18.0453 98.2739 19.2025C97.8484 20.2565 97.2197 21.2164 96.4236 22.0275C95.6399 22.8128 94.7065 23.4326 93.6787 23.8501C92.6066 24.2863 91.459 24.5066 90.3016 24.4985C89.1656 24.5068 88.0393 24.2886 86.9887 23.8566C85.938 23.4245 84.984 22.7874 84.1825 21.9823C83.3836 21.1722 82.752 20.2128 82.3235 19.1588C81.8602 18.0163 81.6289 16.793 81.6431 15.5602V0.5H85.9774V8.4111C86.2208 8.10613 86.5086 7.83945 86.8312 7.61999C87.1652 7.38965 87.5257 7.20035 87.9049 7.05616C88.2924 6.90809 88.6922 6.7945 89.0996 6.7167C89.4955 6.63825 89.898 6.59824 90.3016 6.59723C91.461 6.58689 92.6103 6.81398 93.6787 7.2645C94.7095 7.6996 95.6428 8.33665 96.4236 9.1381C97.2153 9.95836 97.8433 10.9221 98.2739 11.9776C98.7361 13.1149 98.9673 14.3327 98.9542 15.5602ZM94.6039 15.5602C94.6086 14.9349 94.4923 14.3145 94.2615 13.7332C94.0481 13.1934 93.7342 12.699 93.3363 12.2763C92.9488 11.8673 92.4838 11.5394 91.9683 11.3118C91.4425 11.0794 90.8735 10.9608 90.2987 10.9636C89.72 10.9612 89.1488 11.0939 88.6305 11.3512C88.1165 11.6041 87.6545 11.951 87.2683 12.3739C86.8756 12.8041 86.5645 13.3023 86.3504 13.844C86.1306 14.3894 86.0178 14.9721 86.0182 15.5602C86.0124 16.1824 86.1251 16.8 86.3504 17.3799C86.5593 17.9203 86.871 18.4151 87.2683 18.8368C87.6567 19.247 88.1214 19.5776 88.6363 19.8101C89.1615 20.0444 89.7301 20.1655 90.3052 20.1655C90.8803 20.1655 91.4489 20.0444 91.9741 19.8101C92.4887 19.5771 92.9533 19.2466 93.3422 18.8368C93.7397 18.4139 94.0536 17.9196 94.2673 17.3799C94.4968 16.801 94.6111 16.1829 94.6039 15.5602Z" fill="#65CC35"/>
<path id="Vector_6" d="M133.585 24.1852H128.631L125.477 19.3234L122.289 24.1852H117.336L123.131 16.0483L117.339 8.22168H122.292L125.48 12.7731L128.634 8.22168H133.588L127.772 16.0483L133.585 24.1852Z" fill="#65CC35"/>
<path id="Vector_7" d="M111.972 12.5138V20.0097H104.476V12.5138H111.972ZM116.212 8.27417H100.238V24.2479H116.212V8.27417Z" fill="#65CC35"/>
<path id="Vector_8" d="M15.6663 24.102H0V0.73877H4.50044L4.47859 19.6191H15.6663V24.102Z" fill="#65CC35"/>
</g>
</g>
</g>
</svg>
