<svg width="48" height="48" viewBox="0 0 48 48" fill="none" xmlns="http://www.w3.org/2000/svg">
<g id="how_to_reg">
<mask id="mask0_27_973" style="mask-type:alpha" maskUnits="userSpaceOnUse" x="0" y="0" width="48" height="48">
<rect id="Bounding box" width="48" height="48" fill="#D9D9D9"/>
</mask>
<g mask="url(#mask0_27_973)">
<path id="how_to_reg_2" d="M31.1 40.8L24.2 33.9L27 31.1L31.1 35.2L41.2 25.1L44 27.9L31.1 40.8ZM20 24C17.8 24 15.9167 23.2167 14.35 21.65C12.7833 20.0833 12 18.2 12 16C12 13.8 12.7833 11.9167 14.35 10.35C15.9167 8.78333 17.8 8 20 8C22.2 8 24.0833 8.78333 25.65 10.35C27.2167 11.9167 28 13.8 28 16C28 18.2 27.2167 20.0833 25.65 21.65C24.0833 23.2167 22.2 24 20 24ZM25.7 26.6L18.4 33.9L24.5 40H4V34.4C4 33.3 4.28333 32.2667 4.85 31.3C5.41667 30.3333 6.2 29.6 7.2 29.1C8.9 28.2333 10.8167 27.5 12.95 26.9C15.0833 26.3 17.4333 26 20 26C21 26 21.975 26.05 22.925 26.15C23.875 26.25 24.8 26.4 25.7 26.6Z" fill="#767676"/>
</g>
</g>
</svg>
