<svg width="48" height="48" viewBox="0 0 48 48" fill="none" xmlns="http://www.w3.org/2000/svg">
<g id="featured_seasonal_and_gifts">
<mask id="mask0_107_208" style="mask-type:alpha" maskUnits="userSpaceOnUse" x="0" y="0" width="48" height="48">
<rect id="Bounding box" width="48" height="48" fill="#D9D9D9"/>
</mask>
<g mask="url(#mask0_107_208)">
<path id="featured_seasonal_and_gifts_2" d="M8 44V22H4V10H14.4C14.2333 9.7 14.125 9.38333 14.075 9.05C14.025 8.71667 14 8.36667 14 8C14 6.33333 14.5833 4.91667 15.75 3.75C16.9167 2.58333 18.3333 2 20 2C20.7667 2 21.4833 2.14167 22.15 2.425C22.8167 2.70833 23.4333 3.1 24 3.6C24.5667 3.06667 25.1833 2.66667 25.85 2.4C26.5167 2.13333 27.2333 2 28 2C29.6667 2 31.0833 2.58333 32.25 3.75C33.4167 4.91667 34 6.33333 34 8C34 8.36667 33.9667 8.70833 33.9 9.025C33.8333 9.34167 33.7333 9.66667 33.6 10H44V22H40V44H8ZM28 6C27.4333 6 26.9583 6.19167 26.575 6.575C26.1917 6.95833 26 7.43333 26 8C26 8.56667 26.1917 9.04167 26.575 9.425C26.9583 9.80833 27.4333 10 28 10C28.5667 10 29.0417 9.80833 29.425 9.425C29.8083 9.04167 30 8.56667 30 8C30 7.43333 29.8083 6.95833 29.425 6.575C29.0417 6.19167 28.5667 6 28 6ZM18 8C18 8.56667 18.1917 9.04167 18.575 9.425C18.9583 9.80833 19.4333 10 20 10C20.5667 10 21.0417 9.80833 21.425 9.425C21.8083 9.04167 22 8.56667 22 8C22 7.43333 21.8083 6.95833 21.425 6.575C21.0417 6.19167 20.5667 6 20 6C19.4333 6 18.9583 6.19167 18.575 6.575C18.1917 6.95833 18 7.43333 18 8ZM8 14V18H22V14H8ZM22 40V22H12V40H22ZM26 40H36V22H26V40ZM40 18V14H26V18H40Z" fill="white"/>
</g>
</g>
</svg>
