<svg width="32" height="32" viewBox="0 0 32 32" fill="none" xmlns="http://www.w3.org/2000/svg">
<g id="Facebook_f_logo_(2021) 1" clip-path="url(#clip0_30_1086)">
<path id="Vector" d="M13.3595 31.84C5.75951 30.48 -0.000488281 23.92 -0.000488281 16C-0.000488281 7.2 7.19951 0 15.9995 0C24.7995 0 31.9995 7.2 31.9995 16C31.9995 23.92 26.2395 30.48 18.6395 31.84L17.7595 31.12H14.2395L13.3595 31.84Z" fill="#767676"/>
<path id="Vector_2" d="M22.2395 20.48L22.9595 16H18.7195V12.88C18.7195 11.6 19.1995 10.64 21.1195 10.64H23.1995V6.55999C22.0795 6.39999 20.7995 6.23999 19.6795 6.23999C15.9995 6.23999 13.4395 8.47999 13.4395 12.48V16H9.43951V20.48H13.4395V31.76C14.3195 31.92 15.1995 32 16.0795 32C16.9595 32 17.8395 31.92 18.7195 31.76V20.48H22.2395Z" fill="#F5F5F5"/>
</g>
<defs>
<clipPath id="clip0_30_1086">
<rect width="32" height="32" fill="white" transform="translate(-0.000488281)"/>
</clipPath>
</defs>
</svg>
