<svg width="32" height="32" viewBox="0 0 32 32" fill="none" xmlns="http://www.w3.org/2000/svg">
<g id="Instagram_logo_2016 1">
<path id="Vector" d="M16.0077 0.242432C9.42787 0.242432 7.50351 0.24922 7.12945 0.28025C5.77914 0.392492 4.9389 0.605098 4.02351 1.06086C3.31805 1.41116 2.76169 1.81722 2.2126 2.38643C1.2126 3.42449 0.606537 4.70158 0.387143 6.21964C0.280476 6.95661 0.249446 7.10692 0.243143 10.8713C0.240719 12.1261 0.243143 13.7775 0.243143 15.9925C0.243143 22.567 0.250416 24.4895 0.281931 24.8628C0.391022 26.1767 0.597082 27.0034 1.03345 27.9076C1.86739 29.6386 3.46011 30.9379 5.33648 31.4228C5.98617 31.5901 6.70375 31.6822 7.62496 31.7258C8.01526 31.7428 11.9934 31.7549 15.9741 31.7549C19.9547 31.7549 23.9353 31.7501 24.3159 31.7307C25.3825 31.6805 26.0019 31.5973 26.6868 31.4204C28.5753 30.9331 30.1389 29.6531 30.9898 27.8979C31.4177 27.0155 31.6347 26.1573 31.7328 24.912C31.7542 24.6405 31.7631 20.3115 31.7631 15.9884C31.7631 11.6645 31.7534 7.34352 31.7321 7.07201C31.6327 5.80655 31.4157 4.95564 30.9741 4.05625C30.6116 3.32001 30.2092 2.77019 29.625 2.20801C28.5823 1.21213 27.3071 0.606068 25.7876 0.386916C25.0514 0.280492 24.9047 0.248977 21.1374 0.242432H16.0077Z" fill="#767676"/>
<path id="Vector_2" d="M16.0077 0.242432C9.42787 0.242432 7.50351 0.24922 7.12945 0.28025C5.77914 0.392492 4.9389 0.605098 4.02351 1.06086C3.31805 1.41116 2.76169 1.81722 2.2126 2.38643C1.2126 3.42449 0.606537 4.70158 0.387143 6.21964C0.280476 6.95661 0.249446 7.10692 0.243143 10.8713C0.240719 12.1261 0.243143 13.7775 0.243143 15.9925C0.243143 22.567 0.250416 24.4895 0.281931 24.8628C0.391022 26.1767 0.597082 27.0034 1.03345 27.9076C1.86739 29.6386 3.46011 30.9379 5.33648 31.4228C5.98617 31.5901 6.70375 31.6822 7.62496 31.7258C8.01526 31.7428 11.9934 31.7549 15.9741 31.7549C19.9547 31.7549 23.9353 31.7501 24.3159 31.7307C25.3825 31.6805 26.0019 31.5973 26.6868 31.4204C28.5753 30.9331 30.1389 29.6531 30.9898 27.8979C31.4177 27.0155 31.6347 26.1573 31.7328 24.912C31.7542 24.6405 31.7631 20.3115 31.7631 15.9884C31.7631 11.6645 31.7534 7.34352 31.7321 7.07201C31.6327 5.80655 31.4157 4.95564 30.9741 4.05625C30.6116 3.32001 30.2092 2.77019 29.625 2.20801C28.5823 1.21213 27.3071 0.606068 25.7876 0.386916C25.0514 0.280492 24.9047 0.248977 21.1374 0.242432H16.0077Z" fill="#767676"/>
<path id="Vector_3" d="M16.0005 4.36353C12.8402 4.36353 12.4436 4.37734 11.2024 4.43383C9.96363 4.49056 9.11805 4.68668 8.37817 4.97443C7.61284 5.27165 6.96363 5.66922 6.31684 6.31625C5.66957 6.96304 5.27199 7.61225 4.97381 8.37734C4.68533 9.11746 4.48896 9.96328 4.4332 11.2016C4.37769 12.4428 4.36314 12.8396 4.36314 15.9999C4.36314 19.1601 4.3772 19.5555 4.43345 20.7967C4.49042 22.0355 4.68654 22.8811 4.97405 23.621C5.27151 24.3863 5.66908 25.0355 6.31611 25.6823C6.96266 26.3296 7.61187 26.7281 8.37672 27.0253C9.11708 27.3131 9.9629 27.5092 11.2014 27.566C12.4427 27.6224 12.839 27.6363 15.999 27.6363C19.1595 27.6363 19.5549 27.6224 20.7961 27.566C22.0349 27.5092 22.8814 27.3131 23.6218 27.0253C24.3869 26.7281 25.0351 26.3296 25.6817 25.6823C26.329 25.0355 26.7265 24.3863 27.0247 23.6212C27.3108 22.8811 27.5071 22.0353 27.5653 20.797C27.6211 19.5558 27.6356 19.1601 27.6356 15.9999C27.6356 12.8396 27.6211 12.443 27.5653 11.2018C27.5071 9.96304 27.3108 9.11746 27.0247 8.37759C26.7265 7.61225 26.329 6.96304 25.6817 6.31625C25.0344 5.66898 24.3871 5.2714 23.6211 4.97443C22.8793 4.68668 22.0332 4.49056 20.7944 4.43383C19.5532 4.37734 19.1581 4.36353 15.9968 4.36353H16.0005ZM14.9566 6.46049C15.2664 6.46001 15.6121 6.46049 16.0005 6.46049C19.1074 6.46049 19.4756 6.47165 20.7025 6.5274C21.8371 6.57928 22.4528 6.76886 22.863 6.92813C23.4061 7.13904 23.7932 7.39116 24.2002 7.79843C24.6075 8.20571 24.8596 8.59359 25.071 9.13662C25.2303 9.54631 25.4201 10.1621 25.4717 11.2966C25.5275 12.5233 25.5396 12.8918 25.5396 15.9972C25.5396 19.1027 25.5275 19.4712 25.4717 20.6978C25.4199 21.8324 25.2303 22.4481 25.071 22.8578C24.8601 23.4009 24.6075 23.7875 24.2002 24.1946C23.793 24.6018 23.4063 24.854 22.863 25.0649C22.4533 25.2249 21.8371 25.4139 20.7025 25.4658C19.4759 25.5216 19.1074 25.5337 16.0005 25.5337C12.8933 25.5337 12.5251 25.5216 11.2984 25.4658C10.1639 25.4135 9.54811 25.2239 9.13769 25.0646C8.59466 24.8537 8.20678 24.6016 7.79951 24.1943C7.39223 23.787 7.14011 23.4001 6.92872 22.8569C6.76945 22.4472 6.57963 21.8314 6.52799 20.6969C6.47223 19.4702 6.46108 19.1017 6.46108 15.9943C6.46108 12.8869 6.47223 12.5204 6.52799 11.2937C6.57987 10.1592 6.76945 9.5434 6.92872 9.13322C7.13963 8.59019 7.39223 8.20231 7.79951 7.79504C8.20678 7.38777 8.59466 7.13565 9.13769 6.92425C9.54787 6.76425 10.1639 6.57516 11.2984 6.52304C12.3719 6.47456 12.7879 6.46001 14.9566 6.45759V6.46049ZM22.2119 8.39262C21.441 8.39262 20.8155 9.01734 20.8155 9.7885C20.8155 10.5594 21.441 11.1849 22.2119 11.1849C22.9828 11.1849 23.6082 10.5594 23.6082 9.7885C23.6082 9.01759 22.9828 8.39213 22.2119 8.39213V8.39262ZM16.0005 10.0241C12.7004 10.0241 10.0247 12.6998 10.0247 15.9999C10.0247 19.3 12.7004 21.9744 16.0005 21.9744C19.3006 21.9744 21.9753 19.3 21.9753 15.9999C21.9753 12.6998 19.3006 10.0241 16.0005 10.0241ZM16.0005 12.1211C18.1425 12.1211 19.8793 13.8576 19.8793 15.9999C19.8793 18.142 18.1425 19.8787 16.0005 19.8787C13.8582 19.8787 12.1217 18.142 12.1217 15.9999C12.1217 13.8576 13.8582 12.1211 16.0005 12.1211Z" fill="#F5F5F5"/>
</g>
</svg>
