<svg width="32" height="32" viewBox="0 0 32 32" fill="none" xmlns="http://www.w3.org/2000/svg">
<g id="LinkedIn_icon 1" clip-path="url(#clip0_107_232)">
<g id="Group">
<path id="Vector" fill-rule="evenodd" clip-rule="evenodd" d="M3.55604 32H28.4449C30.4086 32 32.0005 30.4081 32.0005 28.4444V3.55556C32.0005 1.59188 30.4086 0 28.4449 0H3.55604C1.59236 0 0.000488281 1.59188 0.000488281 3.55556V28.4444C0.000488281 30.4081 1.59236 32 3.55604 32Z" fill="#767676"/>
<path id="Vector_2" fill-rule="evenodd" clip-rule="evenodd" d="M27.556 27.5554H22.8074V19.4675C22.8074 17.25 21.9648 16.0108 20.2097 16.0108C18.3003 16.0108 17.3027 17.3004 17.3027 19.4675V27.5554H12.7264V12.148H17.3027V14.2234C17.3027 14.2234 18.6787 11.6773 21.9483 11.6773C25.2163 11.6773 27.556 13.673 27.556 17.8004V27.5554ZM7.26686 10.1306C5.70807 10.1306 4.44493 8.85752 4.44493 7.28745C4.44493 5.71738 5.70807 4.44434 7.26686 4.44434C8.82566 4.44434 10.088 5.71738 10.088 7.28745C10.088 8.85752 8.82566 10.1306 7.26686 10.1306ZM4.90384 27.5554H9.67578V12.148H4.90384V27.5554Z" fill="white"/>
</g>
</g>
<defs>
<clipPath id="clip0_107_232">
<rect width="32" height="32" fill="white" transform="translate(0.000488281)"/>
</clipPath>
</defs>
</svg>
