<svg width="32" height="32" viewBox="0 0 32 32" fill="none" xmlns="http://www.w3.org/2000/svg">
<g id="logo-tiktok-svgrepo-com 1">
<path id="Vector" d="M25.7624 7.41625C25.5599 7.31159 25.3628 7.19687 25.1717 7.0725C24.6163 6.70528 24.107 6.27259 23.6549 5.78375C22.5236 4.48938 22.1011 3.17625 21.9455 2.25688H21.9517C21.8217 1.49375 21.8755 1 21.8836 1H16.7311V20.9237C16.7311 21.1912 16.7311 21.4556 16.7199 21.7169C16.7199 21.7494 16.7167 21.7794 16.7149 21.8144C16.7149 21.8288 16.7149 21.8438 16.7117 21.8587C16.7117 21.8625 16.7117 21.8663 16.7117 21.87C16.6574 22.5849 16.4283 23.2754 16.0444 23.8809C15.6606 24.4864 15.1338 24.9884 14.5105 25.3425C13.8608 25.7121 13.1261 25.906 12.3786 25.905C9.97799 25.905 8.03237 23.9475 8.03237 21.53C8.03237 19.1125 9.97799 17.155 12.3786 17.155C12.833 17.1546 13.2847 17.2261 13.7167 17.3669L13.723 12.1206C12.4113 11.9512 11.0788 12.0554 9.80948 12.4268C8.54013 12.7981 7.36152 13.4285 6.34799 14.2781C5.45991 15.0498 4.71329 15.9704 4.14174 16.9988C3.92424 17.3738 3.10362 18.8806 3.00424 21.3263C2.94174 22.7144 3.35862 24.1525 3.55737 24.7469V24.7594C3.68237 25.1094 4.16674 26.3037 4.95612 27.3106C5.59264 28.1183 6.34467 28.8278 7.18799 29.4163V29.4037L7.20049 29.4163C9.69487 31.1112 12.4605 31 12.4605 31C12.9392 30.9806 14.543 31 16.3642 30.1369C18.3842 29.18 19.5342 27.7544 19.5342 27.7544C20.2689 26.9025 20.8531 25.9318 21.2617 24.8838C21.728 23.6581 21.8836 22.1881 21.8836 21.6006V11.0306C21.9461 11.0681 22.7786 11.6187 22.7786 11.6187C22.7786 11.6187 23.978 12.3875 25.8492 12.8881C27.1917 13.2444 29.0005 13.3194 29.0005 13.3194V8.20438C28.3667 8.27313 27.0799 8.07313 25.7624 7.41625Z" fill="#767676"/>
</g>
</svg>
